<svg width="98" height="36" viewBox="0 0 98 36" fill="none" xmlns="http://www.w3.org/2000/svg">
<path fill-rule="evenodd" clip-rule="evenodd" d="M14.5772 -2.27303C7.6804 6.00511 1.0628 16.2814 0.999979 23.953C0.929867 25.3289 1.16682 26.7031 1.6929 27.9716C2.21898 29.2402 3.02041 30.3697 4.03653 31.2748C6.78612 33.7459 10.3373 35.0815 13.9978 35.0214C18.982 35.0214 23.9381 32.9733 27.8124 31.389C34.3462 28.72 106.546 -3.33633 106.546 -3.33633C107.244 -3.69315 107.112 -4.1356 106.239 -3.91437L27.6239 17.8229C26.1432 18.2547 24.6123 18.4804 23.0726 18.4937C17.0553 18.5294 11.7082 15.1182 11.7501 7.92478C11.7501 5.11307 12.6087 1.71618 14.5423 -2.27303H14.5772Z" fill="#231F20"/>
</svg>
