<svg width="100" height="100" viewBox="0 0 100 100" fill="none" xmlns="http://www.w3.org/2000/svg">
<rect width="100" height="100" fill="#BDC581"/>
<path d="M43.0114 65V62.4432L52.6136 51.9318C53.7405 50.7008 54.6686 49.6307 55.3977 48.7216C56.1269 47.803 56.6667 46.9413 57.017 46.1364C57.3769 45.322 57.5568 44.4697 57.5568 43.5795C57.5568 42.5568 57.3106 41.6714 56.8182 40.9233C56.3352 40.1752 55.6723 39.5975 54.8295 39.1903C53.9867 38.7831 53.0398 38.5795 51.9886 38.5795C50.8712 38.5795 49.8958 38.8116 49.0625 39.2756C48.2386 39.7301 47.5994 40.3693 47.1449 41.1932C46.6998 42.017 46.4773 42.983 46.4773 44.0909H43.125C43.125 42.3864 43.518 40.8902 44.304 39.6023C45.09 38.3144 46.16 37.3106 47.5142 36.5909C48.8778 35.8712 50.4072 35.5114 52.1023 35.5114C53.8068 35.5114 55.3172 35.8712 56.6335 36.5909C57.9498 37.3106 58.982 38.2812 59.7301 39.5028C60.4782 40.7244 60.8523 42.0833 60.8523 43.5795C60.8523 44.6496 60.6581 45.696 60.2699 46.7188C59.8911 47.732 59.2282 48.8636 58.2812 50.1136C57.3438 51.3542 56.0417 52.8693 54.375 54.6591L47.8409 61.6477V61.875H61.3636V65H43.0114Z" fill="white"/>
</svg>
