<svg width="100" height="100" viewBox="0 0 100 100" fill="none" xmlns="http://www.w3.org/2000/svg">
<rect width="100" height="100" fill="#CAD3C8"/>
<path d="M52.3295 65.3977C50.3788 65.3977 48.6553 65.0521 47.1591 64.3608C45.6723 63.66 44.5123 62.6989 43.679 61.4773C42.8456 60.2462 42.4337 58.8447 42.4432 57.2727C42.4337 56.0417 42.6752 54.9053 43.1676 53.8636C43.66 52.8125 44.3324 51.9366 45.1847 51.2358C46.0464 50.5256 47.0076 50.0758 48.0682 49.8864V49.7159C46.6761 49.3561 45.5682 48.5748 44.7443 47.3722C43.9205 46.16 43.5133 44.7822 43.5227 43.2386C43.5133 41.7614 43.8873 40.4403 44.6449 39.2756C45.4025 38.1108 46.4441 37.1922 47.7699 36.5199C49.1051 35.8475 50.625 35.5114 52.3295 35.5114C54.0152 35.5114 55.5208 35.8475 56.8466 36.5199C58.1723 37.1922 59.214 38.1108 59.9716 39.2756C60.7386 40.4403 61.1269 41.7614 61.1364 43.2386C61.1269 44.7822 60.7055 46.16 59.8722 47.3722C59.0483 48.5748 57.9545 49.3561 56.5909 49.7159V49.8864C57.642 50.0758 58.589 50.5256 59.4318 51.2358C60.2746 51.9366 60.947 52.8125 61.4489 53.8636C61.9508 54.9053 62.2064 56.0417 62.2159 57.2727C62.2064 58.8447 61.7803 60.2462 60.9375 61.4773C60.1042 62.6989 58.9441 63.66 57.4574 64.3608C55.9801 65.0521 54.2708 65.3977 52.3295 65.3977ZM52.3295 62.2727C53.6458 62.2727 54.7822 62.0597 55.7386 61.6335C56.6951 61.2074 57.4337 60.6061 57.9545 59.8295C58.4754 59.053 58.7405 58.1439 58.75 57.1023C58.7405 56.0038 58.4564 55.0331 57.8977 54.1903C57.339 53.3475 56.5767 52.6847 55.6108 52.2017C54.6544 51.7187 53.5606 51.4773 52.3295 51.4773C51.089 51.4773 49.9811 51.7187 49.0057 52.2017C48.0398 52.6847 47.2775 53.3475 46.7188 54.1903C46.1695 55.0331 45.8996 56.0038 45.9091 57.1023C45.8996 58.1439 46.1506 59.053 46.6619 59.8295C47.1828 60.6061 47.9261 61.2074 48.892 61.6335C49.858 62.0597 51.0038 62.2727 52.3295 62.2727ZM52.3295 48.4659C53.3712 48.4659 54.2945 48.2576 55.0994 47.8409C55.9138 47.4242 56.553 46.8419 57.017 46.0938C57.4811 45.3456 57.7178 44.4697 57.7273 43.4659C57.7178 42.4811 57.4858 41.6241 57.0312 40.8949C56.5767 40.1562 55.947 39.5881 55.142 39.1903C54.3371 38.7831 53.3996 38.5795 52.3295 38.5795C51.2405 38.5795 50.2888 38.7831 49.4744 39.1903C48.66 39.5881 48.0303 40.1562 47.5852 40.8949C47.1402 41.6241 46.9223 42.4811 46.9318 43.4659C46.9223 44.4697 47.1449 45.3456 47.5994 46.0938C48.0634 46.8419 48.7027 47.4242 49.517 47.8409C50.3314 48.2576 51.2689 48.4659 52.3295 48.4659Z" fill="white"/>
</svg>
