<svg width="100" height="100" viewBox="0 0 100 100" fill="none" xmlns="http://www.w3.org/2000/svg">
<rect width="100" height="100" fill="#F97F51"/>
<path d="M52.1023 65.3977C50.4356 65.3977 48.9347 65.0663 47.5994 64.4034C46.2642 63.7405 45.1941 62.8314 44.3892 61.6761C43.5843 60.5208 43.1439 59.2045 43.0682 57.7273H46.4773C46.6098 59.0436 47.2064 60.1326 48.267 60.9943C49.3371 61.8466 50.6155 62.2727 52.1023 62.2727C53.2955 62.2727 54.3561 61.9934 55.2841 61.4347C56.2216 60.8759 56.9555 60.1089 57.4858 59.1335C58.0256 58.1487 58.2955 57.036 58.2955 55.7955C58.2955 54.5265 58.0161 53.3949 57.4574 52.4006C56.9081 51.3968 56.1506 50.6061 55.1847 50.0284C54.2188 49.4508 53.1155 49.1572 51.875 49.1477C50.9848 49.1383 50.071 49.2756 49.1335 49.5597C48.196 49.8343 47.4242 50.1894 46.8182 50.625L43.5227 50.2273L45.2841 35.9091H60.3977V39.0341H48.2386L47.2159 47.6136H47.3864C47.983 47.1402 48.7311 46.7472 49.6307 46.4347C50.5303 46.1222 51.4678 45.9659 52.4432 45.9659C54.2235 45.9659 55.8097 46.392 57.2017 47.2443C58.6032 48.0871 59.7017 49.2424 60.4972 50.7102C61.3021 52.178 61.7045 53.8542 61.7045 55.7386C61.7045 57.5947 61.2879 59.2519 60.4545 60.7102C59.6307 62.1591 58.4943 63.3049 57.0455 64.1477C55.5966 64.9811 53.9489 65.3977 52.1023 65.3977Z" fill="white"/>
</svg>
