<svg width="100" height="100" viewBox="0 0 100 100" fill="none" xmlns="http://www.w3.org/2000/svg">
<rect width="100" height="100" fill="#182C61"/>
<path d="M52.2727 35.5114C53.4659 35.5208 54.6591 35.7481 55.8523 36.1932C57.0455 36.6383 58.1345 37.3769 59.1193 38.4091C60.1042 39.4318 60.8949 40.8286 61.4915 42.5994C62.0881 44.3703 62.3864 46.5909 62.3864 49.2614C62.3864 51.8466 62.1402 54.143 61.6477 56.1506C61.1648 58.1487 60.464 59.8343 59.5455 61.2074C58.6364 62.5805 57.5284 63.6222 56.2216 64.3324C54.9242 65.0426 53.4564 65.3977 51.8182 65.3977C50.1894 65.3977 48.7358 65.0758 47.4574 64.4318C46.1884 63.7784 45.1468 62.8741 44.3324 61.7188C43.5275 60.554 43.0114 59.2045 42.7841 57.6705H46.25C46.5625 59.0057 47.1828 60.1089 48.1108 60.9801C49.0483 61.8419 50.2841 62.2727 51.8182 62.2727C54.0625 62.2727 55.8333 61.2926 57.1307 59.3324C58.4375 57.3722 59.0909 54.6023 59.0909 51.0227H58.8636C58.3333 51.8182 57.7036 52.5047 56.9744 53.0824C56.2453 53.66 55.4356 54.1051 54.5455 54.4176C53.6553 54.7301 52.7083 54.8864 51.7045 54.8864C50.0379 54.8864 48.5085 54.4744 47.1165 53.6506C45.7339 52.8172 44.6259 51.6761 43.7926 50.2273C42.9688 48.7689 42.5568 47.1023 42.5568 45.2273C42.5568 43.447 42.9545 41.8182 43.75 40.3409C44.5549 38.8542 45.6818 37.6705 47.1307 36.7898C48.589 35.9091 50.303 35.483 52.2727 35.5114ZM52.2727 38.6364C51.0795 38.6364 50.0047 38.9347 49.0483 39.5312C48.1013 40.1184 47.3485 40.9138 46.7898 41.9176C46.2405 42.9119 45.9659 44.0152 45.9659 45.2273C45.9659 46.4394 46.2311 47.5426 46.7614 48.5369C47.3011 49.5218 48.035 50.3078 48.9631 50.8949C49.9006 51.4725 50.9659 51.7614 52.1591 51.7614C53.0587 51.7614 53.8968 51.5862 54.6733 51.2358C55.4498 50.8759 56.1269 50.3883 56.7045 49.7727C57.2917 49.1477 57.7509 48.4422 58.0824 47.6562C58.4138 46.8608 58.5795 46.0322 58.5795 45.1705C58.5795 44.0341 58.3049 42.9687 57.7557 41.9744C57.2159 40.9801 56.4678 40.1752 55.5114 39.5597C54.5644 38.9441 53.4848 38.6364 52.2727 38.6364Z" fill="white"/>
</svg>
