<svg width="100" height="100" viewBox="0 0 100 100" fill="none" xmlns="http://www.w3.org/2000/svg">
<rect width="100" height="100" fill="#82589F"/>
<path d="M52.5 65.3977C50.3598 65.3977 48.5369 64.8153 47.0312 63.6506C45.5256 62.4763 44.375 60.7765 43.5795 58.5511C42.7841 56.3163 42.3864 53.6174 42.3864 50.4545C42.3864 47.3106 42.7841 44.6259 43.5795 42.4006C44.3845 40.1657 45.5398 38.4612 47.0455 37.2869C48.5606 36.1032 50.3788 35.5114 52.5 35.5114C54.6212 35.5114 56.4347 36.1032 57.9403 37.2869C59.4555 38.4612 60.6108 40.1657 61.4062 42.4006C62.2112 44.6259 62.6136 47.3106 62.6136 50.4545C62.6136 53.6174 62.2159 56.3163 61.4205 58.5511C60.625 60.7765 59.4744 62.4763 57.9688 63.6506C56.4631 64.8153 54.6402 65.3977 52.5 65.3977ZM52.5 62.2727C54.6212 62.2727 56.2689 61.25 57.4432 59.2045C58.6174 57.1591 59.2045 54.2424 59.2045 50.4545C59.2045 47.9356 58.9347 45.7907 58.3949 44.0199C57.8646 42.2491 57.0975 40.8996 56.0938 39.9716C55.0994 39.0436 53.9015 38.5795 52.5 38.5795C50.3977 38.5795 48.7547 39.6165 47.571 41.6903C46.3873 43.7547 45.7955 46.6761 45.7955 50.4545C45.7955 52.9735 46.0606 55.1136 46.5909 56.875C47.1212 58.6364 47.8835 59.9763 48.8778 60.8949C49.8816 61.8134 51.089 62.2727 52.5 62.2727Z" fill="white"/>
</svg>
