<svg width="100" height="100" viewBox="0 0 100 100" fill="none" xmlns="http://www.w3.org/2000/svg">
<rect width="100" height="100" fill="#1B9CFC"/>
<path d="M52.6705 65.3977C51.4773 65.3788 50.2841 65.1515 49.0909 64.7159C47.8977 64.2803 46.8087 63.5464 45.8239 62.5142C44.839 61.4725 44.0483 60.0663 43.4517 58.2955C42.8551 56.5152 42.5568 54.2803 42.5568 51.5909C42.5568 49.0152 42.7983 46.733 43.2812 44.7443C43.7642 42.7462 44.465 41.0653 45.3835 39.7017C46.3021 38.3286 47.41 37.2869 48.7074 36.5767C50.0142 35.8665 51.4867 35.5114 53.125 35.5114C54.7538 35.5114 56.2027 35.8381 57.4716 36.4915C58.75 37.1354 59.7917 38.035 60.5966 39.1903C61.4015 40.3456 61.9223 41.6761 62.1591 43.1818H58.6932C58.3712 41.875 57.7462 40.7907 56.8182 39.929C55.8902 39.0672 54.6591 38.6364 53.125 38.6364C50.8712 38.6364 49.0956 39.6165 47.7983 41.5767C46.5104 43.5369 45.8617 46.2879 45.8523 49.8295H46.0795C46.6098 49.0246 47.2396 48.3381 47.9688 47.7699C48.7074 47.1922 49.5218 46.7472 50.4119 46.4347C51.3021 46.1222 52.2443 45.9659 53.2386 45.9659C54.9053 45.9659 56.4299 46.3826 57.8125 47.2159C59.1951 48.0398 60.303 49.1809 61.1364 50.6392C61.9697 52.0881 62.3864 53.75 62.3864 55.625C62.3864 57.4242 61.9839 59.072 61.179 60.5682C60.3741 62.0549 59.2424 63.2386 57.7841 64.1193C56.3352 64.9905 54.6307 65.4167 52.6705 65.3977ZM52.6705 62.2727C53.8636 62.2727 54.9337 61.9744 55.8807 61.3778C56.8371 60.7812 57.59 59.9811 58.1392 58.9773C58.6979 57.9735 58.9773 56.8561 58.9773 55.625C58.9773 54.4223 58.7074 53.3286 58.1676 52.3438C57.6373 51.3494 56.9034 50.5587 55.9659 49.9716C55.0379 49.3845 53.9773 49.0909 52.7841 49.0909C51.8845 49.0909 51.0464 49.2708 50.2699 49.6307C49.4934 49.9811 48.8116 50.464 48.2244 51.0795C47.6468 51.6951 47.1922 52.4006 46.8608 53.196C46.5294 53.982 46.3636 54.8106 46.3636 55.6818C46.3636 56.8371 46.6335 57.9167 47.1733 58.9205C47.7225 59.9242 48.4706 60.7339 49.4176 61.3494C50.3741 61.965 51.4583 62.2727 52.6705 62.2727Z" fill="white"/>
</svg>
