<svg width="100" height="100" viewBox="0 0 100 100" fill="none" xmlns="http://www.w3.org/2000/svg">
<rect width="100" height="100" fill="#58B19F"/>
<path d="M52.8409 65.3977C50.9659 65.3977 49.2945 65.0758 47.8267 64.4318C46.3684 63.7879 45.2083 62.893 44.3466 61.7472C43.4943 60.5919 43.0303 59.2519 42.9545 57.7273H46.5341C46.6098 58.6648 46.9318 59.4744 47.5 60.1562C48.0682 60.8286 48.8116 61.3494 49.7301 61.7188C50.6487 62.0881 51.6667 62.2727 52.7841 62.2727C54.0341 62.2727 55.142 62.0549 56.108 61.6193C57.0739 61.1837 57.8314 60.5777 58.3807 59.8011C58.9299 59.0246 59.2045 58.125 59.2045 57.1023C59.2045 56.0322 58.9394 55.09 58.4091 54.2756C57.8788 53.4517 57.1023 52.8078 56.0795 52.3438C55.0568 51.8797 53.8068 51.6477 52.3295 51.6477H50V48.5227H52.3295C53.4848 48.5227 54.4981 48.3144 55.3693 47.8977C56.25 47.4811 56.9366 46.8939 57.429 46.1364C57.9309 45.3788 58.1818 44.4886 58.1818 43.4659C58.1818 42.4811 57.964 41.6241 57.5284 40.8949C57.0928 40.1657 56.4773 39.5975 55.6818 39.1903C54.8958 38.7831 53.9678 38.5795 52.8977 38.5795C51.8939 38.5795 50.947 38.7642 50.0568 39.1335C49.1761 39.4934 48.4564 40.0189 47.8977 40.7102C47.339 41.392 47.036 42.2159 46.9886 43.1818H43.5795C43.6364 41.6572 44.0956 40.322 44.9574 39.1761C45.8191 38.0208 46.946 37.1212 48.3381 36.4773C49.7396 35.8333 51.2784 35.5114 52.9545 35.5114C54.7538 35.5114 56.2973 35.8759 57.5852 36.6051C58.8731 37.3248 59.8627 38.2765 60.554 39.4602C61.2453 40.6439 61.5909 41.9223 61.5909 43.2955C61.5909 44.9337 61.16 46.3305 60.2983 47.4858C59.446 48.6411 58.286 49.4413 56.8182 49.8864V50.1136C58.6553 50.4167 60.09 51.1979 61.1222 52.4574C62.1544 53.7074 62.6705 55.2557 62.6705 57.1023C62.6705 58.6837 62.2396 60.1042 61.3778 61.3636C60.5256 62.6136 59.3608 63.5985 57.8835 64.3182C56.4063 65.0379 54.7254 65.3977 52.8409 65.3977Z" fill="white"/>
</svg>
